<svg xmlns="http://www.w3.org/2000/svg" width="256" height="256"><path fill-opacity=".016" d="M0 128.004v128.004l128.25-.254 128.25-.254.254-127.75L257.008 0H0v128.004m.485.496c0 70.4.119 99.053.265 63.672.146-35.38.146-92.98 0-128C.604 29.153.485 58.1.485 128.5" fill="#1976D2" fill-rule="evenodd"/><path fill-opacity=".159" d="M19 128v128h198V122.46l9.5-9.46 9.5-9.46V0H19v128m20 0v108h157V122.462l-10-9.962-10-9.962V20H39v108m158-70.708v37.292l4.472 4.388 4.472 4.389 2.206-1.93c1.214-1.062 3.463-3.281 4.999-4.931l2.792-3 .03-36.75L216 20h-19v37.292" fill="#1976D2" fill-rule="evenodd"/><path fill-opacity=".408" d="M19 128v128h197V122.71l10-10.162 10-10.162V0H19v128m20 0v108h157V122.46l-9.5-9.46-9.5-9.46V20H39v108m158-70.712v37.287l4.786 4.714 4.786 4.714 4.714-4.786L216 94.431V20h-19v37.288" fill="#1976D2" fill-rule="evenodd"/><path fill-opacity=".984" d="M19 128v128h197V122.462l10-9.962 10-9.962V0H19v128m20 .506v108.506l78.75-.256 78.75-.256.258-57.011.258-57.01-10.008-9.971-10.008-9.97V20H39v108.506m157-71.218v37.287l5 4.925 5 4.925 5-4.925 5-4.925V20h-20v37.288" fill="#1976D2" fill-rule="evenodd"/></svg>